PathFileType	4	(X/Y/Z)	C:\Users\italobelli\Desktop\GitHub\PTbot_officialCBL\Personal_Results\SHRUG22_noisy1.trc
DataRate	CameraRate	NumFrames	NumMarkers	Units	OrigDataRate	OrigDataStartFrame	OrigNumFrames
110.888889	110.888889	47	9	m	110.888889	126	500
Frame#	Time		gu		centelbow		EpL		centpxt8		centijc7		ij		ts		aa		ai
			X1	Y1	Z1	X2	Y2	Z2	X3	Y3	Z3	X4	Y4	Z4	X5	Y5	Z5	X6	Y6	Z6	X7	Y7	Z7	X8	Y8	Z8	X9	Y9	Z9

126	1.1273	-0.093364	-0.0031271	0.16376	-0.12506	-0.2458	0.19274	-0.11218	-0.23995	0.2211	-0.046816	-0.15316	-0.008669	-0.046816	0.031938	-0.008669	0	0	0	-0.13605	0.032827	0.042877	-0.12098	0.032827	0.15841	-0.15736	-0.077385	0.05175
127	1.1363	-0.094256	-0.0017723	0.16346	-0.12522	-0.24427	0.19342	-0.11259	-0.23823	0.2218	-0.046816	-0.15316	-0.008669	-0.046816	0.031938	-0.008669	0	0	0	-0.13592	0.033074	0.042194	-0.12195	0.034033	0.15758	-0.15699	-0.077024	0.051824
128	1.1453	-0.095182	-0.00036382	0.16315	-0.12538	-0.24269	0.19412	-0.11302	-0.23644	0.22252	-0.046816	-0.15316	-0.008669	-0.046816	0.031938	-0.008669	0	0	0	-0.13577	0.033329	0.041484	-0.12297	0.035284	0.15672	-0.15661	-0.076652	0.051901
129	1.1543	-0.09614	0.001094	0.16283	-0.12554	-0.24105	0.19483	-0.11346	-0.2346	0.22325	-0.046816	-0.15316	-0.008669	-0.046816	0.031938	-0.008669	0	0	0	-0.13563	0.03359	0.040749	-0.12402	0.036578	0.15582	-0.1562	-0.076269	0.051981
130	1.1633	-0.097128	0.0025969	0.16249	-0.1257	-0.23937	0.19555	-0.1139	-0.2327	0.224	-0.046816	-0.15316	-0.008669	-0.046816	0.031938	-0.008669	0	0	0	-0.13547	0.033857	0.03999	-0.1251	0.03791	0.1549	-0.15579	-0.075876	0.052064
131	1.1723	-0.098142	0.0041404	0.16215	-0.12587	-0.23765	0.19629	-0.11436	-0.23076	0.22475	-0.046816	-0.15316	-0.008669	-0.046816	0.031938	-0.008669	0	0	0	-0.13532	0.03413	0.039211	-0.12621	0.039277	0.15395	-0.15536	-0.075474	0.05215
132	1.1814	-0.09918	0.0057202	0.1618	-0.12603	-0.23588	0.19703	-0.11482	-0.22877	0.22552	-0.046816	-0.15316	-0.008669	-0.046816	0.031938	-0.008669	0	0	0	-0.13516	0.034408	0.038414	-0.12734	0.040674	0.15298	-0.15493	-0.075064	0.052238
133	1.1904	-0.10024	0.007332	0.16144	-0.1262	-0.23409	0.19779	-0.11529	-0.22674	0.2263	-0.046816	-0.15316	-0.008669	-0.046816	0.031938	-0.008669	0	0	0	-0.13499	0.034689	0.0376	-0.1285	0.042098	0.15199	-0.15448	-0.074648	0.052328
134	1.1994	-0.10132	0.0089715	0.16107	-0.12637	-0.23226	0.19855	-0.11576	-0.22468	0.22709	-0.046816	-0.15316	-0.008669	-0.046816	0.031938	-0.008669	0	0	0	-0.13482	0.034974	0.036771	-0.12967	0.043546	0.15098	-0.15402	-0.074226	0.052419
135	1.2084	-0.10241	0.010634	0.16069	-0.12654	-0.23041	0.19932	-0.11624	-0.22259	0.22789	-0.046816	-0.15316	-0.008669	-0.046816	0.031938	-0.008669	0	0	0	-0.13465	0.035262	0.035931	-0.13086	0.045013	0.14995	-0.15356	-0.0738	0.052513
136	1.2174	-0.10351	0.012316	0.16031	-0.1267	-0.22854	0.20009	-0.11672	-0.22048	0.22868	-0.046816	-0.15316	-0.008669	-0.046816	0.031938	-0.008669	0	0	0	-0.13448	0.035551	0.035081	-0.13206	0.046495	0.14891	-0.15309	-0.073369	0.052607
137	1.2265	-0.10462	0.014012	0.15993	-0.12687	-0.22666	0.20087	-0.11721	-0.21836	0.22948	-0.046816	-0.15316	-0.008669	-0.046816	0.031938	-0.008669	0	0	0	-0.1343	0.035842	0.034223	-0.13327	0.04799	0.14787	-0.15262	-0.072936	0.052703
138	1.2355	-0.10574	0.015718	0.15954	-0.12704	-0.22476	0.20165	-0.11769	-0.21622	0.23029	-0.046816	-0.15316	-0.008669	-0.046816	0.031938	-0.008669	0	0	0	-0.13413	0.036134	0.03336	-0.13449	0.049493	0.14681	-0.15214	-0.072502	0.052799
139	1.2445	-0.10687	0.017431	0.15915	-0.1272	-0.22286	0.20242	-0.11817	-0.21407	0.23109	-0.046816	-0.15316	-0.008669	-0.046816	0.031938	-0.008669	0	0	0	-0.13395	0.036426	0.032493	-0.13571	0.051001	0.14575	-0.15166	-0.072067	0.052896
140	1.2535	-0.10799	0.019144	0.15876	-0.12737	-0.22096	0.2032	-0.11865	-0.21193	0.23189	-0.046816	-0.15316	-0.008669	-0.046816	0.031938	-0.008669	0	0	0	-0.13377	0.036718	0.031625	-0.13693	0.052509	0.14469	-0.15118	-0.071633	0.052994
141	1.2625	-0.10912	0.020855	0.15837	-0.12753	-0.21906	0.20397	-0.11913	-0.20978	0.23268	-0.046816	-0.15316	-0.008669	-0.046816	0.031938	-0.008669	0	0	0	-0.1336	0.037008	0.030758	-0.13815	0.054014	0.14363	-0.1507	-0.0712	0.053091
142	1.2715	-0.11023	0.022559	0.15797	-0.12769	-0.21717	0.20473	-0.11961	-0.20765	0.23348	-0.046816	-0.15316	-0.008669	-0.046816	0.031938	-0.008669	0	0	0	-0.13342	0.037296	0.029894	-0.13936	0.055513	0.14257	-0.15022	-0.07077	0.053188
143	1.2806	-0.11134	0.024251	0.15758	-0.12785	-0.21529	0.20549	-0.12008	-0.20553	0.23426	-0.046816	-0.15316	-0.008669	-0.046816	0.031938	-0.008669	0	0	0	-0.13324	0.037582	0.029035	-0.14057	0.057001	0.14152	-0.14974	-0.070343	0.053285
144	1.2896	-0.11244	0.025928	0.15719	-0.12801	-0.21343	0.20624	-0.12054	-0.20343	0.23503	-0.046816	-0.15316	-0.008669	-0.046816	0.031938	-0.008669	0	0	0	-0.13307	0.037865	0.028184	-0.14176	0.058475	0.14047	-0.14927	-0.069921	0.053381
145	1.2986	-0.11353	0.027584	0.15681	-0.12816	-0.21159	0.20698	-0.121	-0.20135	0.2358	-0.046816	-0.15316	-0.008669	-0.046816	0.031938	-0.008669	0	0	0	-0.1329	0.038143	0.027342	-0.14293	0.059931	0.13944	-0.1488	-0.069505	0.053477
146	1.3076	-0.1146	0.029216	0.15643	-0.12831	-0.20977	0.20771	-0.12145	-0.1993	0.23655	-0.046816	-0.15316	-0.008669	-0.046816	0.031938	-0.008669	0	0	0	-0.13272	0.038417	0.026512	-0.14409	0.061365	0.13842	-0.14834	-0.069096	0.053571
147	1.3166	-0.11565	0.030818	0.15605	-0.12846	-0.20799	0.20843	-0.12189	-0.19729	0.23729	-0.046816	-0.15316	-0.008669	-0.046816	0.031938	-0.008669	0	0	0	-0.13256	0.038687	0.025696	-0.14523	0.062774	0.13742	-0.14789	-0.068694	0.053664
148	1.3257	-0.11668	0.032388	0.15568	-0.1286	-0.20624	0.20913	-0.12232	-0.19532	0.23802	-0.046816	-0.15316	-0.008669	-0.046816	0.031938	-0.008669	0	0	0	-0.13239	0.03895	0.024896	-0.14635	0.064153	0.13644	-0.14745	-0.068301	0.053755
149	1.3347	-0.11768	0.03392	0.15532	-0.12874	-0.20453	0.20982	-0.12274	-0.1934	0.23873	-0.046816	-0.15316	-0.008669	-0.046816	0.031938	-0.008669	0	0	0	-0.13223	0.039207	0.024114	-0.14743	0.0655	0.13548	-0.14701	-0.067918	0.053844
150	1.3437	-0.11866	0.03541	0.15496	-0.12888	-0.20287	0.21049	-0.12315	-0.19152	0.23942	-0.046816	-0.15316	-0.008669	-0.046816	0.031938	-0.008669	0	0	0	-0.13207	0.039456	0.023353	-0.14849	0.06681	0.13455	-0.14659	-0.067546	0.053931
151	1.3527	-0.1196	0.036853	0.15462	-0.12901	-0.20125	0.21114	-0.12354	-0.1897	0.24009	-0.046816	-0.15316	-0.008669	-0.046816	0.031938	-0.008669	0	0	0	-0.13192	0.039698	0.022615	-0.14951	0.068079	0.13365	-0.14618	-0.067186	0.054016
152	1.3617	-0.12052	0.038246	0.15428	-0.12913	-0.19969	0.21176	-0.12392	-0.18795	0.24074	-0.046816	-0.15316	-0.008669	-0.046816	0.031938	-0.008669	0	0	0	-0.13177	0.039931	0.021901	-0.1505	0.069304	0.13277	-0.14578	-0.066839	0.054098
153	1.3707	-0.12139	0.039584	0.15395	-0.12926	-0.19819	0.21237	-0.12428	-0.18625	0.24137	-0.046816	-0.15316	-0.008669	-0.046816	0.031938	-0.008669	0	0	0	-0.13163	0.040155	0.021214	-0.15144	0.070482	0.13193	-0.1454	-0.066506	0.054177
154	1.3798	-0.12223	0.040863	0.15364	-0.12937	-0.19675	0.21295	-0.12463	-0.18464	0.24197	-0.046816	-0.15316	-0.008669	-0.046816	0.031938	-0.008669	0	0	0	-0.13149	0.04037	0.020556	-0.15235	0.071607	0.13112	-0.14503	-0.066188	0.054253
155	1.3888	-0.12303	0.042078	0.15334	-0.12948	-0.19537	0.21351	-0.12496	-0.18309	0.24255	-0.046816	-0.15316	-0.008669	-0.046816	0.031938	-0.008669	0	0	0	-0.13136	0.040574	0.019929	-0.15321	0.072677	0.13035	-0.14468	-0.065886	0.054325
156	1.3978	-0.12378	0.043225	0.15305	-0.12959	-0.19407	0.21404	-0.12527	-0.18163	0.24309	-0.046816	-0.15316	-0.008669	-0.046816	0.031938	-0.008669	0	0	0	-0.13124	0.040767	0.019336	-0.15402	0.073688	0.12962	-0.14435	-0.065601	0.054394
157	1.4068	-0.12448	0.044299	0.15278	-0.12969	-0.19284	0.21454	-0.12556	-0.18026	0.24361	-0.046816	-0.15316	-0.008669	-0.046816	0.031938	-0.008669	0	0	0	-0.13112	0.040948	0.018779	-0.15478	0.074636	0.12894	-0.14404	-0.065334	0.05446
158	1.4158	-0.12513	0.045297	0.15252	-0.12978	-0.1917	0.21501	-0.12583	-0.17898	0.2441	-0.046816	-0.15316	-0.008669	-0.046816	0.031938	-0.008669	0	0	0	-0.13101	0.041116	0.018259	-0.15548	0.075517	0.1283	-0.14376	-0.065086	0.054521
159	1.4248	-0.12573	0.046213	0.15228	-0.12986	-0.19064	0.21545	-0.12607	-0.17779	0.24455	-0.046816	-0.15316	-0.008669	-0.046816	0.031938	-0.008669	0	0	0	-0.13091	0.041272	0.017779	-0.15613	0.076328	0.12772	-0.14349	-0.064859	0.054577
160	1.4339	-0.12627	0.047045	0.15205	-0.12994	-0.18967	0.21586	-0.1263	-0.17671	0.24497	-0.046816	-0.15316	-0.008669	-0.046816	0.031938	-0.008669	0	0	0	-0.13082	0.041414	0.017341	-0.15671	0.077065	0.12718	-0.14325	-0.064653	0.05463
161	1.4429	-0.12676	0.047786	0.15185	-0.13001	-0.1888	0.21623	-0.1265	-0.17574	0.24536	-0.046816	-0.15316	-0.008669	-0.046816	0.031938	-0.008669	0	0	0	-0.13073	0.041541	0.016948	-0.15723	0.077724	0.1267	-0.14303	-0.064469	0.054677
162	1.4519	-0.12718	0.048433	0.15166	-0.13008	-0.18802	0.21656	-0.12667	-0.17488	0.2457	-0.046816	-0.15316	-0.008669	-0.046816	0.031938	-0.008669	0	0	0	-0.13066	0.041653	0.016601	-0.15769	0.078301	0.12627	-0.14284	-0.064308	0.054719
163	1.4609	-0.12754	0.048982	0.15149	-0.13013	-0.18735	0.21686	-0.12682	-0.17414	0.24601	-0.046816	-0.15316	-0.008669	-0.046816	0.031938	-0.008669	0	0	0	-0.1306	0.04175	0.016302	-0.15807	0.078792	0.12591	-0.14267	-0.064172	0.054756
164	1.4699	-0.12783	0.049428	0.15134	-0.13018	-0.18679	0.21712	-0.12694	-0.17352	0.24628	-0.046816	-0.15316	-0.008669	-0.046816	0.031938	-0.008669	0	0	0	-0.13054	0.04183	0.016054	-0.15838	0.079195	0.12561	-0.14254	-0.064061	0.054787
165	1.479	-0.12805	0.049767	0.15122	-0.13022	-0.18634	0.21733	-0.12703	-0.17304	0.2465	-0.046816	-0.15316	-0.008669	-0.046816	0.031938	-0.008669	0	0	0	-0.1305	0.041893	0.01586	-0.15862	0.079504	0.12537	-0.14243	-0.063977	0.054813
166	1.488	-0.12819	0.049994	0.15112	-0.13024	-0.18601	0.21751	-0.1271	-0.17268	0.24668	-0.046816	-0.15316	-0.008669	-0.046816	0.031938	-0.008669	0	0	0	-0.13047	0.041939	0.01572	-0.15877	0.079717	0.1252	-0.14236	-0.06392	0.054832
167	1.497	-0.12826	0.050105	0.15104	-0.13027	-0.1858	0.21764	-0.12713	-0.17247	0.24682	-0.046816	-0.15316	-0.008669	-0.046816	0.031938	-0.008669	0	0	0	-0.13044	0.041966	0.015637	-0.15884	0.079829	0.12511	-0.14232	-0.063892	0.054845
168	1.506	-0.12827	0.050124	0.15098	-0.13028	-0.18569	0.21773	-0.12713	-0.17237	0.24691	-0.046816	-0.15316	-0.008669	-0.046816	0.031938	-0.008669	0	0	0	-0.13043	0.041978	0.015601	-0.15885	0.079861	0.12507	-0.1423	-0.063886	0.054853
169	1.515	-0.12828	0.050134	0.15093	-0.13028	-0.18559	0.21779	-0.12712	-0.17228	0.24697	-0.046816	-0.15316	-0.008669	-0.046816	0.031938	-0.008669	0	0	0	-0.13042	0.041989	0.015568	-0.15885	0.079886	0.12503	-0.14229	-0.063883	0.054859
170	1.524	-0.12828	0.050144	0.15087	-0.13027	-0.18549	0.21783	-0.12711	-0.17219	0.24702	-0.046816	-0.15316	-0.008669	-0.046816	0.031938	-0.008669	0	0	0	-0.13041	0.041998	0.015537	-0.15885	0.07991	0.12499	-0.14227	-0.063879	0.054864
171	1.5331	-0.12828	0.050153	0.15081	-0.13025	-0.1854	0.21785	-0.12708	-0.1721	0.24704	-0.046816	-0.15316	-0.008669	-0.046816	0.031938	-0.008669	0	0	0	-0.1304	0.042006	0.015505	-0.15885	0.079934	0.12496	-0.14226	-0.063875	0.054867
172	1.5421	-0.12828	0.050162	0.15076	-0.13022	-0.1853	0.21784	-0.12704	-0.17202	0.24704	-0.046816	-0.15316	-0.008669	-0.046816	0.031938	-0.008669	0	0	0	-0.13039	0.042013	0.015475	-0.15885	0.079956	0.12492	-0.14225	-0.063872	0.054869
